<svg xmlns="http://www.w3.org/2000/svg" viewBox="0 0 1200 1000" role="img" aria-labelledby="title desc"><title id="title">IONCORE Field Coveralls</title><desc id="desc">Black tactical coveralls with neon green IONCORE accents.</desc><defs><radialGradient id="bg" cx="50%" cy="15%" r="80%"><stop offset="0" stop-color="#1f3c12"/><stop offset="0.45" stop-color="#070b07"/><stop offset="1" stop-color="#020302"/></radialGradient><linearGradient id="suit" x1="0" y1="0" x2="1" y2="1"><stop offset="0" stop-color="#222b21"/><stop offset="0.52" stop-color="#0b100c"/><stop offset="1" stop-color="#151d14"/></linearGradient><filter id="glow"><feGaussianBlur stdDeviation="8" result="blur"/><feMerge><feMergeNode in="blur"/><feMergeNode in="SourceGraphic"/></feMerge></filter></defs><rect width="1200" height="1000" fill="url(#bg)"/><circle cx="600" cy="455" r="320" fill="none" stroke="#7ed321" stroke-opacity=".16" stroke-width="18"/><path d="M418 170h364l118 105-82 166-78-34v410c0 60-46 110-106 110h-68c-24 0-43-19-43-43V620h-46v264c0 24-19 43-43 43h-68c-60 0-106-50-106-110V407l-78 34-82-166 118-105z" fill="url(#suit)" stroke="#7ed321" stroke-width="10"/><path d="M484 175c12 54 52 88 116 88s104-34 116-88" fill="none" stroke="#a8ff2a" stroke-width="13"/><path d="M600 260v354M477 620h246M326 408l-54 122M874 408l54 122" stroke="#7ed321" stroke-width="12" stroke-linecap="round"/><rect x="422" y="330" width="128" height="96" rx="14" fill="#111811" stroke="#7ed321" stroke-width="8"/><rect x="650" y="330" width="128" height="96" rx="14" fill="#111811" stroke="#7ed321" stroke-width="8"/><rect x="372" y="535" width="118" height="150" rx="14" fill="#101710" stroke="#315414" stroke-width="8"/><rect x="710" y="535" width="118" height="150" rx="14" fill="#101710" stroke="#315414" stroke-width="8"/><path d="M510 760h-92M690 760h92" stroke="#a8ff2a" stroke-width="13" stroke-linecap="round" filter="url(#glow)"/><text x="600" y="486" fill="#a8ff2a" text-anchor="middle" font-size="64" font-family="Arial, Helvetica, sans-serif" font-weight="900" letter-spacing="6">IONCORE</text><text x="600" y="920" fill="#f3f5f2" text-anchor="middle" font-size="54" font-family="Arial, Helvetica, sans-serif" font-weight="900">FIELD COVERALLS</text></svg>