<svg xmlns="http://www.w3.org/2000/svg" viewBox="0 0 1200 900" role="img" aria-label="IONCORE Camera Security System"><defs><radialGradient id="g" cx="65%" cy="20%" r="75%"><stop offset="0" stop-color="#7ed321" stop-opacity=".55"/><stop offset=".45" stop-color="#10220f"/><stop offset="1" stop-color="#020302"/></radialGradient><filter id="glow"><feGaussianBlur stdDeviation="7" result="b"/><feMerge><feMergeNode in="b"/><feMergeNode in="SourceGraphic"/></feMerge></filter></defs><rect width="1200" height="900" fill="url(#g)"/><g fill="none" stroke="rgba(126,211,33,.22)" stroke-width="3"><path d="M80 0v900"/><path d="M170 0v900"/><path d="M260 0v900"/><path d="M350 0v900"/><path d="M440 0v900"/><path d="M530 0v900"/><path d="M620 0v900"/><path d="M710 0v900"/><path d="M800 0v900"/><path d="M890 0v900"/><path d="M980 0v900"/><path d="M1070 0v900"/><path d="M1160 0v900"/><path d="M0 80h1200"/><path d="M0 160h1200"/><path d="M0 240h1200"/><path d="M0 320h1200"/><path d="M0 400h1200"/><path d="M0 480h1200"/><path d="M0 560h1200"/><path d="M0 640h1200"/><path d="M0 720h1200"/><path d="M0 800h1200"/><path d="M0 880h1200"/></g><g filter="url(#glow)"><rect x="165" y="170" width="870" height="560" rx="42" fill="#071007" stroke="#7ed321" stroke-width="8"/><rect x="235" y="250" width="410" height="250" rx="28" fill="#111b12" stroke="#7ed321" stroke-width="5"/><circle cx="440" cy="375" r="92" fill="#020302" stroke="#7ed321" stroke-width="18"/><circle cx="440" cy="375" r="34" fill="#7ed321"/><path d="M710 285h190m-190 62h250m-250 62h170m-170 62h220" stroke="#7ed321" stroke-width="18" stroke-linecap="round"/><rect x="280" y="560" width="640" height="72" rx="20" fill="#020302" stroke="#a8ff2a" stroke-width="4"/></g><text x="600" y="632" fill="#eaffdf" font-size="34" font-family="Arial, Helvetica, sans-serif" text-anchor="middle" font-weight="800">4K / NVR / APP</text><text x="600" y="810" fill="#f3f5f2" font-size="58" font-family="Arial, Helvetica, sans-serif" text-anchor="middle" font-weight="900">IONCORE</text><text x="600" y="102" fill="#7ed321" font-size="52" font-family="Arial, Helvetica, sans-serif" text-anchor="middle" font-weight="900">Camera Security System</text></svg>